<?xml version="1.0" encoding="iso-8859-1"?>
<!-- Generator: Adobe Illustrator 19.0.0, SVG Export Plug-In . SVG Version: 6.00 Build 0)  -->
<svg version="1.1" id="Capa_1" xmlns="http://www.w3.org/2000/svg" xmlns:xlink="http://www.w3.org/1999/xlink" x="0px" y="0px"
	 viewBox="0 0 512 512" style="enable-background:new 0 0 512 512;" xml:space="preserve">
<rect x="104.296" y="233.087" style="fill:#525C5E;" width="313.506" height="249.4"/>
<path style="fill:#B58360;" d="M256.365,307.431L256.365,307.431c-24.294,0-43.987,19.694-43.987,43.987v65.291h87.975v-65.291
	C300.352,327.125,280.658,307.431,256.365,307.431z"/>
<g>
	<rect x="184.127" y="442.946" style="fill:#C0C4D1;" width="144.465" height="41.059"/>
	<rect x="201.221" y="416.708" style="fill:#C0C4D1;" width="110.298" height="39.357"/>
</g>
<g>
	<polygon style="fill:#E3E4E8;" points="451.019,158.811 451.019,227.004 61.717,227.004 61.717,158.811 256.368,22.811 	"/>
	<rect x="73.556" y="274.534" style="fill:#E3E4E8;" width="61.47" height="169.933"/>
</g>
<rect x="73.556" y="274.534" style="fill:#C6CAD5;" width="24.652" height="169.933"/>
<rect x="58.672" y="234.638" style="fill:#E3E4E8;" width="91.242" height="55.697"/>
<rect x="58.672" y="249.816" style="fill:#C6CAD5;" width="27.212" height="40.52"/>
<rect x="58.672" y="428.661" style="fill:#E3E4E8;" width="91.242" height="53.816"/>
<rect x="58.672" y="428.661" style="fill:#C6CAD5;" width="27.212" height="40.52"/>
<rect x="377.704" y="274.534" style="fill:#E3E4E8;" width="61.47" height="169.933"/>
<rect x="377.704" y="274.534" style="fill:#C6CAD5;" width="24.652" height="169.933"/>
<rect x="362.82" y="234.638" style="fill:#E3E4E8;" width="91.242" height="55.697"/>
<rect x="362.82" y="249.816" style="fill:#C6CAD5;" width="27.212" height="40.52"/>
<rect x="362.82" y="428.661" style="fill:#E3E4E8;" width="91.242" height="53.816"/>
<g>
	<rect x="362.82" y="428.661" style="fill:#C6CAD5;" width="27.212" height="40.52"/>
	<polygon style="fill:#C6CAD5;" points="451.019,161.285 451.019,208.135 256.368,87.911 61.717,208.135 61.717,161.285 
		256.368,41.061 	"/>
</g>
<polygon style="fill:#E3E4E8;" points="503.722,207.236 256.365,54.457 9.008,207.236 9.008,160.384 256.365,7.604 503.722,160.384 
	"/>
<rect x="7.604" y="469.185" style="fill:#423E3E;" width="496.792" height="35.211"/>
<rect x="42.704" y="211.796" style="fill:#C0C4D1;" width="427.322" height="38.018"/>
<path d="M253.566,185.011c-15.052-0.373-26.372-8.459-26.372-15.425c0-3.484,3.11-8.708,6.966-8.708
	c4.728,0,8.459,8.086,19.405,9.33v-24.755c-11.32-4.229-24.133-9.081-24.133-25.004c0-15.799,11.694-22.641,24.133-24.258v-3.484
	c0-1.617,1.867-3.11,4.23-3.11c2.115,0,4.23,1.492,4.23,3.11v3.234c8.087,0.249,21.272,2.613,21.272,9.827
	c0,2.861-1.991,8.583-6.593,8.583c-3.484,0-6.345-3.98-14.68-4.603v21.893c11.071,4.105,23.51,9.703,23.51,26.621
	c0,15.301-9.578,24.133-23.51,26.373v3.857c0,1.617-2.115,3.11-4.23,3.11c-2.363,0-4.23-1.493-4.23-3.11v-3.482H253.566z
	 M254.561,128.908v-18.784c-6.22,0.996-9.952,3.98-9.952,8.708C244.609,124.305,248.839,126.669,254.561,128.908z M261.03,148.438
	v21.645c5.473-1.119,9.33-4.354,9.33-10.2C270.359,153.787,266.379,150.801,261.03,148.438z"/>
<path d="M111.897,403.408v-85.16c0-4.199-3.405-7.604-7.604-7.604c-4.199,0-7.604,3.405-7.604,7.604v85.16
	c0,4.199,3.405,7.604,7.604,7.604C108.492,411.012,111.897,407.607,111.897,403.408z"/>
<path d="M408.436,411.012c4.2,0,7.604-3.405,7.604-7.604v-85.16c0-4.199-3.404-7.604-7.604-7.604s-7.604,3.405-7.604,7.604v85.16
	C400.832,407.607,404.236,411.012,408.436,411.012z"/>
<path d="M504.396,461.581h-42.734v-32.915c0-4.199-3.405-7.604-7.604-7.604h-7.283V297.939h7.283c4.199,0,7.604-3.405,7.604-7.604
	V257.42h8.363c4.199,0,7.604-3.405,7.604-7.604v-38.019c0-4.199-3.405-7.604-7.604-7.604H458.62v-15.877l41.105,25.388
	c1.223,0.755,2.609,1.135,3.996,1.135c1.374,0,2.749-0.372,3.968-1.117c2.329-1.423,3.636-4.064,3.636-6.794v-46.544
	c0-2.636-1.366-5.084-3.608-6.469L398.147,86.239c-3.573-2.207-8.258-1.099-10.465,2.474l0,0c-2.207,3.573-1.1,8.259,2.474,10.465
	l105.962,65.448v28.977L260.361,47.988c-2.451-1.514-5.543-1.513-7.992,0L16.612,193.601v-28.977L256.365,16.543l103.47,63.908
	c3.573,2.207,8.258,1.099,10.465-2.474l0,0c2.207-3.573,1.1-8.259-2.474-10.465L260.361,1.135c-2.451-1.513-5.543-1.513-7.992,0
	L5.012,153.915c-2.243,1.385-3.608,3.833-3.608,6.469v46.628c0,2.198,0.84,4.358,2.468,5.835c2.577,2.339,6.294,2.612,9.132,0.859
	l41.105-25.389v15.877H42.705c-4.199,0-7.604,3.405-7.604,7.604v38.018c0,4.199,3.405,7.604,7.604,7.604h8.363v32.915
	c0,4.199,3.405,7.604,7.604,7.604h7.283v13.716c0,4.199,3.405,7.604,7.604,7.604l0,0c4.199,0,7.604-3.405,7.604-7.604v-13.716
	h46.261v123.122H81.163v-73.921c0-4.199-3.405-7.604-7.604-7.604l0,0c-4.199,0-7.604,3.405-7.604,7.604v73.921h-7.283
	c-4.199,0-7.604,3.405-7.604,7.604v32.915H7.604c-4.199,0-7.604,3.405-7.604,7.604v35.211C0,508.595,3.405,512,7.604,512h496.792
	c4.199,0,7.604-3.405,7.604-7.604v-35.211C512,464.986,508.596,461.581,504.396,461.581z M370.419,436.269h7.283h61.47h7.283v25.311
	H370.42v-25.311H370.419z M431.567,421.061h-46.263V297.939h46.263V421.061z M446.454,282.731h-7.283h-61.47h-7.283V257.42h76.035
	v25.311H446.454z M69.318,178.924l187.047-115.53l187.047,115.53v25.27H69.318V178.924z M50.309,219.402h412.113v22.81h-8.363
	h-91.242H149.916H58.672h-8.363V219.402z M73.559,282.731h-7.283V257.42h76.036v25.311h-7.283H73.559z M142.632,297.939h7.283
	c4.199,0,7.604-3.405,7.604-7.604V257.42h197.693v32.915c0,4.199,3.404,7.604,7.604,7.604h7.283v123.122h-7.283
	c-4.2,0-7.604,3.405-7.604,7.604v32.915h-19.009v-18.634c0-4.199-3.404-7.604-7.604-7.604h-9.481v-18.634
	c0-4.199-3.404-7.604-7.604-7.604h-3.559v-57.686c0-28.448-23.143-51.591-51.591-51.591s-51.591,23.144-51.591,51.591v57.686h-3.558
	c-4.199,0-7.604,3.405-7.604,7.604v18.634h-9.482c-4.199,0-7.604,3.405-7.604,7.604v18.634h-19.008v-32.915
	c0-4.199-3.405-7.604-7.604-7.604h-7.283V297.939H142.632z M292.748,409.105h-28.78v-93.264
	c16.423,3.507,28.779,18.124,28.779,35.578L292.748,409.105L292.748,409.105z M248.761,409.105h-28.779v-57.686
	c0-17.454,12.357-32.071,28.779-35.578V409.105z M208.82,424.313h3.558h87.975h3.559v11.03H208.82L208.82,424.313L208.82,424.313z
	 M201.216,450.55h110.299h9.481v11.03H191.734v-11.03H201.216z M66.276,436.269h7.283h61.469h7.283v25.311H66.276V436.269z
	 M496.792,496.793H15.208v-20.003h43.464h91.243h34.216H328.6h34.217h91.242h42.733V496.793z"/>
<path d="M285.536,158.265c0-15.213-10.059-21.271-20.136-25.323v-22.706c5.816,1.243,8.342,4.118,11.305,4.118
	c4.602,0,6.593-5.722,6.593-8.583c0-6.277-9.978-8.881-17.898-9.616v-6.556c0-4.199-3.404-7.604-7.604-7.604
	c-4.199,0-7.604,3.405-7.604,7.604v7.169c-11.1,2.364-20.759,9.322-20.759,23.681c0,14.354,10.413,19.71,20.759,23.725v25.376
	c-8.4-2.292-11.829-8.673-16.031-8.673c-3.857,0-6.966,5.224-6.966,8.708c0,6.435,9.662,13.819,22.997,15.204v6.814
	c0,4.199,3.405,7.604,7.604,7.604c4.2,0,7.604-3.405,7.604-7.604v-7.68C277.474,180.865,285.536,172.292,285.536,158.265z
	 M244.609,118.832c0-3.482,2.03-6.014,5.582-7.508v15.615C246.817,125.108,244.609,122.78,244.609,118.832z M265.4,168.516v-17.714
	c3.005,2.072,4.96,4.813,4.96,9.08C270.359,164,268.442,166.816,265.4,168.516z"/>
<g>
</g>
<g>
</g>
<g>
</g>
<g>
</g>
<g>
</g>
<g>
</g>
<g>
</g>
<g>
</g>
<g>
</g>
<g>
</g>
<g>
</g>
<g>
</g>
<g>
</g>
<g>
</g>
<g>
</g>
</svg>
