<?xml version="1.0" encoding="iso-8859-1"?>
<!-- Generator: Adobe Illustrator 19.0.0, SVG Export Plug-In . SVG Version: 6.00 Build 0)  -->
<svg version="1.1" id="Capa_1" xmlns="http://www.w3.org/2000/svg" xmlns:xlink="http://www.w3.org/1999/xlink" x="0px" y="0px"
	 viewBox="0 0 512 512" style="enable-background:new 0 0 512 512;" xml:space="preserve">
<path style="fill:#F09800;" d="M500.1,318.157c0,0-60.27,9.066-57.206-49.536c1.532-29.285-16.683-53.23-38.928-55.601l-0.01-0.01
	c-11.92-1.27-25.004,3.672-36.819,17.313l-23.378-11.783c0,0,6.81-49.001,60.501-70.217c20.954-8.279,38.928-4.334,52.663,6.684
	h0.01c21.479,17.219,32.58,51.687,28.467,83.742C478.653,291.296,500.1,318.157,500.1,318.157z"/>
<path style="fill:#CE7B02;" d="M456.923,155.006c-40.271-16.253-77.762,33.189-52.967,58.004
	c-11.92-1.27-25.004,3.672-36.819,17.313l-20.895,12.843l-2.483-24.626c0,0,6.81-49.001,60.501-70.217
	C425.214,140.043,443.188,143.989,456.923,155.006z"/>
<polyline style="fill:#EFBF00;" points="258.799,357.246 258.799,512 224.184,512 224.184,358.702 224.184,235.786 224.184,48.511 
	258.799,48.511 258.799,232.583 "/>
<polyline style="fill:#C69702;" points="240.374,357.246 240.374,512 224.184,512 224.184,358.702 224.184,235.786 224.184,48.511 
	240.374,48.511 240.374,232.583 "/>
<path style="fill:#EDEFEF;" d="M507.991,436.473l-27.239,17.89L374.943,409.99l-58.644-60.197c-5.781,1.794-11.615,3.4-17.481,4.816
	c-48.34,11.741-98.967,11.038-147.129-2.182l-17.512-4.806l-63.009,23.462l3.274,45.517l20.86,4.816l1.364,40.932l-47.994-9.181
	L32.03,353.381l45.161-52.159l12.612-131.873l-46.672,22.916c-3.809,1.868-7.901,2.77-11.951,2.77
	c-7.009,0-13.913-2.697-19.118-7.849c-11.636-11.521-10.514-30.639,2.392-40.712l8.719-6.81
	c7.198-5.624,13.053-12.623,17.292-20.492s6.862-16.61,7.597-25.718L90.884,74.6l-5.96-39.022l46.21,28.236l22.045,25.245
	c36.273,41.53,52.978,96.638,45.874,151.337l3.2,0.567c8.929,1.616,17.932,2.403,26.903,2.403c25.571,0,50.879-6.464,73.491-18.981
	c47.133-26.106,101.076,21.069,81.497,71.256l-6.044,15.508l27.722,56.388L507.991,436.473z"/>
<polygon style="fill:#1D2925;" points="451.482,442.262 479.087,415.578 507.992,436.479 480.754,454.359 "/>
<g>
	<path style="fill:#F09800;" d="M199.053,240.375c-77.615-67.206-67.919-176.582-67.919-176.582l22.045,25.245
		C189.453,130.568,206.157,185.676,199.053,240.375z"/>
	<path style="fill:#F09800;" d="M48.059,93.455c0,0,22.941,28.331,62.863,34.929L90.885,74.598"/>
</g>
<polygon style="fill:#1D2925;" points="74.442,416.604 67.786,456.824 96.663,462.343 95.3,421.416 "/>
<circle style="fill:#E91623;" cx="241.49" cy="33.05" r="33.05"/>
<path style="fill:#CC0D1F;" d="M232.574,33.051c0-13.993,8.701-25.946,20.983-30.768C249.818,0.815,245.751,0,241.491,0
	c-18.253,0-33.05,14.797-33.05,33.051c0,18.253,14.797,33.05,33.05,33.05c4.26,0,8.327-0.814,12.067-2.282
	C241.274,58.997,232.574,47.044,232.574,33.051z"/>
<path style="fill:#00B4E0;" d="M199.053,240.396c0-0.01,0-0.01,0-0.021"/>
<path style="fill:#CFD3D3;" d="M122.666,282.828c-14.427-2.025-29.275,2.634-40.04,13.105l-5.435,5.288l12.612-131.873l11.505-6.099
	c9.33-4.946,20.58,1.772,20.65,12.332L122.666,282.828z"/>
<path style="fill:#00B4E0;" d="M319.856,240.154c0,33.356-27.04,60.407-60.396,60.407c-33.283,0-60.281-26.924-60.407-60.165
	l3.19,0.577c8.929,1.605,17.922,2.403,26.882,2.403c25.581,0,50.89-6.464,73.523-18.992c4.417-2.445,8.898-4.25,13.368-5.456
	C318.503,225.528,319.856,232.684,319.856,240.154z"/>
<path style="fill:#02A8C4;" d="M260.995,308.487c-1.691,0-3.391-0.062-5.096-0.187c-37.386-2.742-65.689-35.376-63.122-72.759
	c0.005-0.094,0.013-0.189,0.022-0.279c0.412-4.327,4.25-7.495,8.58-7.088c4.22,0.402,7.344,4.068,7.112,8.263
	c-0.003,0.046-0.005,0.091-0.009,0.137c-2.001,28.783,19.786,53.917,48.57,56.028c13.987,1.026,27.546-3.459,38.167-12.631
	c10.62-9.171,17.034-21.929,18.061-35.923c0.466-6.353-0.198-12.627-1.977-18.647c-1.231-4.169,1.151-8.545,5.319-9.776
	c4.173-1.232,8.546,1.151,9.776,5.319c2.316,7.845,3.184,16.006,2.577,24.256c-1.334,18.186-9.669,34.765-23.47,46.683
	C292.995,302.687,277.353,308.487,260.995,308.487z"/>
<line style="fill:none;stroke:#000000;stroke-width:15;stroke-linecap:round;stroke-linejoin:round;stroke-miterlimit:10;" x1="59.903" y1="133.499" x2="59.903" y2="133.499"/>
<path style="fill:#E91623;" d="M54.469,194.57c-2.547,0-5.044-1.233-6.56-3.512l-31.285-47.035
	c-2.407-3.619-1.424-8.503,2.195-10.91c3.618-2.407,8.503-1.425,10.91,2.194l31.285,47.035c2.407,3.619,1.424,8.503-2.195,10.91
	C57.48,194.143,55.966,194.57,54.469,194.57z"/>
<path style="fill:#CFD3D3;" d="M298.818,354.609c-48.34,11.741-98.967,11.038-147.129-2.182l-17.512-4.806l21.911-17.458
	c5.916-4.713,13.91-5.862,20.912-3.001c21.98,8.984,73.073,27.447,121.775,27.447L298.818,354.609L298.818,354.609z"/>
<path style="fill:#E91623;" d="M84.632,248.904c-1.094,0-1.768-0.021-1.973-0.028c-4.343-0.161-7.733-3.812-7.574-8.155
	c0.156-4.244,3.648-7.579,7.859-7.579c0.095,0,0.191,0.001,0.287,0.005c0.663,0.016,45.215,1.117,85.725-26.712
	c3.582-2.462,8.481-1.552,10.943,2.03c2.462,3.582,1.552,8.481-2.03,10.943C137.372,247.23,94.374,248.904,84.632,248.904z"/>
<g>
</g>
<g>
</g>
<g>
</g>
<g>
</g>
<g>
</g>
<g>
</g>
<g>
</g>
<g>
</g>
<g>
</g>
<g>
</g>
<g>
</g>
<g>
</g>
<g>
</g>
<g>
</g>
<g>
</g>
</svg>
