<?xml version="1.0" encoding="iso-8859-1"?>
<!-- Generator: Adobe Illustrator 19.0.0, SVG Export Plug-In . SVG Version: 6.00 Build 0)  -->
<svg version="1.1" id="Capa_1" xmlns="http://www.w3.org/2000/svg" xmlns:xlink="http://www.w3.org/1999/xlink" x="0px" y="0px"
	 viewBox="0 0 512 512" style="enable-background:new 0 0 512 512;" xml:space="preserve">
<rect x="103.048" y="72.9" style="fill:#DBBB95;" width="305.905" height="136.114"/>
<rect x="140.994" y="115.591" style="fill:#FAE2C1;" width="267.958" height="93.423"/>
<path style="fill:#BF0000;" d="M469.341,37.979c0,0,0,50.564-54.022,50.564c-14.114,0-31.759,0-50.132-0.116
	c-51.787,0-109.192,0-109.192,0.116c0,0-97.439,0-152.947,0h-6.367c-54.022,0-54.022-50.564-54.022-50.564
	C110.152,77.306,128.156,0,128.156,0h255.689C383.844,0,401.848,77.306,469.341,37.979z"/>
<path style="fill:#9E0202;" d="M103.048,88.543h-6.367c-54.022,0-54.022-50.564-54.022-50.564C110.152,77.306,128.156,0,128.156,0
	h33.804C161.96,0,173.787,62.918,103.048,88.543z"/>
<g>
	<rect x="132.098" y="88.538" style="fill:#1D2925;" width="40.518" height="67.113"/>
	<rect x="201.193" y="88.538" style="fill:#1D2925;" width="40.518" height="67.113"/>
	<rect x="339.383" y="88.538" style="fill:#1D2925;" width="40.518" height="67.113"/>
	<rect x="270.288" y="88.538" style="fill:#1D2925;" width="40.518" height="67.113"/>
</g>
<path style="fill:#DD2828;" d="M378.267,88.538h-12.158c-37.984,0-74.006-16.866-98.329-46.04l0,0
	c-9.282-11.133-26.385-11.133-35.667,0l0,0c-24.324,29.174-60.346,46.04-98.329,46.04l0,0"/>
<rect x="48.098" y="275.421" style="fill:#DBBB95;" width="415.803" height="150.196"/>
<rect x="142.955" y="322.844" style="fill:#FAE2C1;" width="320.947" height="102.773"/>
<path style="fill:#BF0000;" d="M511.23,233.374c0,0,0,60.494-64.626,60.494c-16.886,0-38,0-59.977-0.137
	c-61.948,0-130.632,0-130.632,0.137c0,0-80.827,0-146.212,0H65.396c-64.626,0-64.626-60.494-64.626-60.494
	c80.743,47.044,102.278-45.441,102.278-45.441h305.905C408.952,187.932,430.487,280.417,511.23,233.374z"/>
<polygon style="fill:#9CA7AB;" points="463.906,407.175 48.093,407.175 17.554,512 494.445,512 "/>
<path style="fill:#DD2828;" d="M402.277,293.862h-14.545c-45.443,0-88.538-20.178-117.638-55.081l0,0
	c-11.106-13.319-31.566-13.319-42.671,0l0,0c-29.1,34.902-72.196,55.081-117.638,55.081l0,0"/>
<polygon style="fill:#6C777D;" points="48.093,407.175 17.554,512 128.227,512 142.954,407.175 "/>
<g>
	<path style="fill:#9CA7AB;" d="M98.187,448.283H72.89c-4.367,0-7.906-3.54-7.906-7.906s3.539-7.906,7.906-7.906h25.297
		c4.367,0,7.906,3.54,7.906,7.906S102.554,448.283,98.187,448.283z"/>
	<path style="fill:#9CA7AB;" d="M123.484,478.85H98.187c-4.367,0-7.906-3.54-7.906-7.906c0-4.366,3.539-7.906,7.906-7.906h25.297
		c4.367,0,7.906,3.54,7.906,7.906C131.39,475.311,127.851,478.85,123.484,478.85z"/>
</g>
<g>
	<path style="fill:#6C777D;" d="M446.017,486.754h-25.296c-4.367,0-7.906-3.54-7.906-7.906s3.539-7.906,7.906-7.906h25.296
		c4.367,0,7.906,3.54,7.906,7.906S450.383,486.754,446.017,486.754z"/>
	<path style="fill:#6C777D;" d="M207.739,445.35h-25.296c-4.367,0-7.906-3.54-7.906-7.906s3.539-7.906,7.906-7.906h25.296
		c4.367,0,7.906,3.54,7.906,7.906S212.106,445.35,207.739,445.35z"/>
	<path style="fill:#6C777D;" d="M390.681,459.878h-25.297c-4.367,0-7.906-3.54-7.906-7.906s3.539-7.906,7.906-7.906h25.297
		c4.367,0,7.906,3.54,7.906,7.906S395.047,459.878,390.681,459.878z"/>
	<path style="fill:#6C777D;" d="M363.803,484.647h-25.296c-4.367,0-7.906-3.54-7.906-7.906c0-4.366,3.539-7.906,7.906-7.906h25.296
		c4.367,0,7.906,3.54,7.906,7.906C371.709,481.107,368.169,484.647,363.803,484.647z"/>
</g>
<g>
	<rect x="82.872" y="293.867" style="fill:#1D2925;" width="44.269" height="74.84"/>
	<rect x="158.366" y="293.867" style="fill:#1D2925;" width="44.269" height="74.84"/>
	<rect x="309.363" y="293.867" style="fill:#1D2925;" width="44.269" height="74.84"/>
	<rect x="233.87" y="293.867" style="fill:#1D2925;" width="44.269" height="74.84"/>
	<rect x="384.856" y="293.867" style="fill:#1D2925;" width="44.269" height="74.84"/>
</g>
<path style="fill:#9E0202;" d="M142.917,223.947c-3.949,39.741-37.584,69.92-77.521,69.92l0,0
	c-64.626,0-64.626-60.494-64.626-60.494c80.743,47.044,102.278-45.441,102.278-45.441h37.947
	C140.994,187.932,145,202.994,142.917,223.947z"/>
<g>
</g>
<g>
</g>
<g>
</g>
<g>
</g>
<g>
</g>
<g>
</g>
<g>
</g>
<g>
</g>
<g>
</g>
<g>
</g>
<g>
</g>
<g>
</g>
<g>
</g>
<g>
</g>
<g>
</g>
</svg>
