<?xml version="1.0" encoding="iso-8859-1"?>
<!-- Generator: Adobe Illustrator 19.0.0, SVG Export Plug-In . SVG Version: 6.00 Build 0)  -->
<svg version="1.1" id="Capa_1" xmlns="http://www.w3.org/2000/svg" xmlns:xlink="http://www.w3.org/1999/xlink" x="0px" y="0px"
	 viewBox="0 0 512 512" style="enable-background:new 0 0 512 512;" xml:space="preserve">
<rect x="232.49" y="350.103" style="fill:#EB1922;" width="47.02" height="161.896"/>
<path style="fill:#BA081E;" d="M279.51,350.103v99.474c-15.036-6.019-31.984-6.019-47.02,0v-99.474H279.51z"/>
<path style="fill:#EB1922;" d="M423.696,512H379.81l-73.101-99.286c-25.161-34.189-76.257-34.189-101.428,0L132.18,512H88.304
	l100.801-204.215l14.273-36.049l7.199-60.656l12.142-102.337L234.45,9.9c0.67-5.647,5.457-9.9,11.145-9.9h20.81
	c5.687,0,10.475,4.254,11.145,9.9l11.73,98.842l12.142,102.337l7.199,60.656l14.273,36.049L423.696,512z"/>
<path style="fill:#BA081E;" d="M121.73,512H88.304l100.801-204.215l14.273-36.049L234.45,9.9c0.67-5.647,5.457-9.9,11.145-9.9h6.487
	l-23.118,292.371C151.774,419.368,121.73,512,121.73,512z"/>
<polygon style="fill:#D8D9D3;" points="301.422,211.08 210.578,211.08 222.72,108.743 289.28,108.743 "/>
<polygon style="fill:#C6C6C4;" points="243.482,108.743 235.384,211.08 210.578,211.08 222.72,108.743 "/>
<path style="fill:#D8D9D3;" d="M337.962,271.735h-163.93c-4.07,0-7.37,3.3-7.37,7.37v21.308c0,4.07,3.3,7.37,7.37,7.37h163.93
	c4.07,0,7.37-3.3,7.37-7.37v-21.308C345.331,275.035,342.032,271.735,337.962,271.735z"/>
<path style="fill:#C6C6C4;" d="M225.436,271.735h-51.404c-4.07,0-7.37,3.3-7.37,7.37v21.308c0,4.07,3.3,7.37,7.37,7.37h51.404
	V271.735z"/>
<g>
</g>
<g>
</g>
<g>
</g>
<g>
</g>
<g>
</g>
<g>
</g>
<g>
</g>
<g>
</g>
<g>
</g>
<g>
</g>
<g>
</g>
<g>
</g>
<g>
</g>
<g>
</g>
<g>
</g>
</svg>
