<?xml version="1.0" encoding="iso-8859-1"?>
<!-- Generator: Adobe Illustrator 19.0.0, SVG Export Plug-In . SVG Version: 6.00 Build 0)  -->
<svg version="1.1" id="Capa_1" xmlns="http://www.w3.org/2000/svg" xmlns:xlink="http://www.w3.org/1999/xlink" x="0px" y="0px"
	 viewBox="0 0 511.999 511.999" style="enable-background:new 0 0 511.999 511.999;" xml:space="preserve">
<path style="fill:#6D7F84;" d="M324.153,42.638H59.118V25.116c0-9.677,7.845-17.521,17.521-17.521h247.512
	c9.677,0,17.521,7.845,17.521,17.521l0,0C341.676,34.794,333.83,42.638,324.153,42.638z"/>
<path style="fill:#829399;" d="M461.215,69.004H196.18V51.482c0-9.677,7.845-17.521,17.521-17.521h247.512
	c9.677,0,17.521,7.845,17.521,17.521l0,0C478.736,61.159,470.891,69.004,461.215,69.004z"/>
<polygon style="fill:#C51200;" points="133.708,393.42 37.533,393.42 38.11,347.692 41.655,64.889 129.585,64.889 "/>
<polygon style="fill:#AA0A02;" points="73.021,64.889 73.021,347.692 38.11,347.692 41.655,64.889 "/>
<g>
	<polygon style="fill:#E9EAEF;" points="132.887,330.15 38.363,330.15 39.032,274.102 39.042,273.221 39.183,261.442 
		132.057,261.442 	"/>
	<polygon style="fill:#E9EAEF;" points="131.156,192.734 40.095,192.734 40.915,124.026 130.324,124.026 	"/>
</g>
<g>
	<polygon style="fill:#D6D6D8;" points="73.021,124.026 73.021,192.734 40.095,192.734 40.915,124.026 	"/>
	<polygon style="fill:#D6D6D8;" points="73.021,261.442 73.021,330.15 38.363,330.15 39.032,274.102 39.042,273.221 39.193,261.442 
			"/>
</g>
<polygon style="fill:#E9EAEF;" points="175.95,418.739 272.125,418.739 268.001,90.211 180.074,90.211 "/>
<polygon style="fill:#C51200;" points="178.507,218.058 269.568,218.058 268.743,149.351 179.332,149.351 "/>
<polygon style="fill:#D6D6D8;" points="211.441,90.211 211.441,373.014 176.529,373.014 180.074,90.211 "/>
<polygon style="fill:#AA0A02;" points="211.441,149.347 211.441,218.056 178.515,218.056 179.334,149.347 "/>
<polygon style="fill:#CBD0D8;" points="405.107,200.804 405.107,299.831 306.08,200.804 306.08,299.831 207.052,200.804 
	207.052,299.831 7.864,299.831 7.864,504.403 504.134,504.403 504.134,299.831 "/>
<g>
	<rect x="401.675" y="344.076" style="fill:#A0D9F2;" width="59.249" height="120.006"/>
	<rect x="220.141" y="344.076" style="fill:#A0D9F2;" width="59.249" height="120.006"/>
	<rect x="310.908" y="344.076" style="fill:#A0D9F2;" width="59.249" height="120.006"/>
</g>
<rect x="42.404" y="344.076" style="fill:#C51200;" width="133.243" height="160.326"/>
<path d="M511.731,331.902V299.83c0-2.014-0.8-3.946-2.224-5.37l-99.027-99.027c-2.591-2.589-6.731-3.017-9.851-0.768
	c-2.017,1.454-3.115,3.873-3.115,6.359v80.469l-86.06-86.06c-2.592-2.59-6.737-3.017-9.857-0.764
	c-2.015,1.456-3.111,3.875-3.111,6.361v80.463l-20.035-20.035l-0.998-23.379L275.6,90.113c-0.052-4.158-3.437-7.501-7.595-7.501
	h-87.982c-4.163,0-7.549,3.35-7.596,7.512l-2.226,202.112h-30.167l-2.853-227.442c-0.053-4.158-3.437-7.501-7.596-7.501H41.603
	c-4.158,0-7.543,3.343-7.596,7.501l-2.853,227.442H7.864c-4.195,0-7.596,3.401-7.596,7.596v204.572c0,4.195,3.401,7.596,7.596,7.596
	h34.541h133.243h328.486c4.195,0,7.596-3.401,7.596-7.596V367.352c0-4.195-3.401-7.596-7.596-7.596l0,0
	c-4.195,0-7.596,3.401-7.596,7.596v129.455H183.244V344.075c0-4.195-3.401-7.596-7.596-7.596H42.405
	c-4.195,0-7.596,3.401-7.596,7.596v152.731H15.46V307.427h191.592c4.195,0,7.596-3.401,7.596-7.596v-80.689l86.06,86.06
	c2.589,2.587,6.727,3.016,9.849,0.77c2.018-1.452,3.118-3.87,3.118-6.356v-80.475l86.06,86.06c2.589,2.587,6.727,3.016,9.849,0.77
	c2.018-1.452,3.118-3.87,3.118-6.356V219.14l83.835,83.835V331.9c0,4.195,3.401,7.596,7.596,7.596l0,0
	C508.33,339.498,511.731,336.099,511.731,331.902z M168.052,496.807h-49.691V351.671h49.691V496.807z M50.001,351.671h53.169
	v145.135H50.001V351.671z M262.262,238.383c0.001,0.076,0.003,0.153,0.006,0.229l0.297,6.963L242.64,225.65h19.463L262.262,238.383z
	 M260.503,97.803l0.55,43.951h-74.002l0.484-43.951C187.535,97.803,260.503,97.803,260.503,97.803z M123.497,185.141H47.692
	l0.671-53.516h74.463L123.497,185.141z M123.687,200.333l0.671,53.516h-77.53l0.671-53.516H123.687z M122.084,72.485l0.551,43.948
	H48.554l0.551-43.948C49.105,72.485,122.084,72.485,122.084,72.485z M46.64,269.041h77.91l0.291,23.194H46.349L46.64,269.041z
	 M185.394,292.235l0.733-66.585h13.328v66.585H185.394z M212.422,195.432c-2.172-2.172-5.44-2.822-8.278-1.647
	c-2.839,1.176-4.689,3.946-4.689,7.018v9.654h-13.161l0.589-53.511h74.36l0.669,53.511h-34.464L212.422,195.432z"/>
<path d="M401.677,336.479c-4.196,0-7.596,3.401-7.596,7.596v120.01c0,4.195,3.4,7.596,7.596,7.596h59.246
	c4.196,0,7.596-3.401,7.596-7.596v-120.01c0-4.195-3.4-7.596-7.596-7.596H401.677z M453.326,396.484h-14.43v-44.813h14.43V396.484z
	 M423.704,351.671v44.813h-14.431v-44.813H423.704z M409.273,411.676h14.431v44.813h-14.431V411.676z M438.896,456.49v-44.813h14.43
	v44.813H438.896z"/>
<path d="M220.142,336.479c-4.195,0-7.596,3.401-7.596,7.596v120.01c0,4.195,3.401,7.596,7.596,7.596h59.246
	c4.196,0,7.596-3.401,7.596-7.596v-120.01c0-4.195-3.4-7.596-7.596-7.596H220.142z M271.791,396.484h-14.43v-44.813h14.43V396.484z
	 M242.168,351.671v44.813h-14.431v-44.813H242.168z M227.738,411.676h14.431v44.813h-14.431V411.676z M257.36,456.49v-44.813h14.43
	v44.813H257.36z"/>
<path d="M310.909,336.479c-4.196,0-7.596,3.401-7.596,7.596v120.01c0,4.195,3.4,7.596,7.596,7.596h59.246
	c4.196,0,7.596-3.401,7.596-7.596v-120.01c0-4.195-3.4-7.596-7.596-7.596H310.909z M362.559,396.484h-14.431v-44.813h14.431V396.484
	z M332.935,351.671v44.813h-14.43v-44.813H332.935z M318.505,411.676h14.43v44.813h-14.43V411.676z M348.127,456.49v-44.813h14.431
	v44.813H348.127z"/>
<path d="M59.115,50.234h129.501c-0.02,0.413-0.031,0.829-0.031,1.248v17.521c0,4.195,3.401,7.596,7.596,7.596h187.516
	c4.195,0,7.596-3.401,7.596-7.596l0,0c0-4.195-3.401-7.596-7.596-7.596H203.776v-9.925c0-5.482,4.444-9.925,9.925-9.925h247.163
	c5.282,0,9.9,3.976,10.254,9.246c0.387,5.779-4.205,10.606-9.903,10.606h-42.068c-4.195,0-7.596,3.401-7.596,7.596l0,0
	c0,4.195,3.401,7.596,7.596,7.596h41.497c14.052,0,25.923-11.498,25.686-25.548c-0.231-13.651-11.408-24.687-25.114-24.687H349.231
	c0.02-0.415,0.042-0.83,0.042-1.248C349.272,11.267,338.005,0,324.155,0H76.636C62.764,0,51.518,11.245,51.518,25.117v17.521
	C51.519,46.833,54.92,50.234,59.115,50.234z M66.711,25.116c0-5.473,4.452-9.925,9.925-9.925h247.517
	c5.472,0,9.925,4.452,9.925,9.925c0,0.423-0.029,0.839-0.08,1.248H213.702c-7.567,0-14.356,3.368-18.966,8.678H66.711V25.116z"/>
<g>
</g>
<g>
</g>
<g>
</g>
<g>
</g>
<g>
</g>
<g>
</g>
<g>
</g>
<g>
</g>
<g>
</g>
<g>
</g>
<g>
</g>
<g>
</g>
<g>
</g>
<g>
</g>
<g>
</g>
</svg>
