<?xml version="1.0" encoding="iso-8859-1"?>
<!-- Generator: Adobe Illustrator 19.0.0, SVG Export Plug-In . SVG Version: 6.00 Build 0)  -->
<svg version="1.1" id="Capa_1" xmlns="http://www.w3.org/2000/svg" xmlns:xlink="http://www.w3.org/1999/xlink" x="0px" y="0px"
	 viewBox="0 0 512.001 512.001" style="enable-background:new 0 0 512.001 512.001;" xml:space="preserve">
<rect x="224.481" y="293.709" style="fill:#9EA9AB;" width="63.05" height="122.559"/>
<g>
	<rect x="224.481" y="293.709" style="fill:#7E8889;" width="63.05" height="35.865"/>
	<rect x="224.481" y="293.709" style="fill:#7E8889;" width="31.525" height="122.559"/>
</g>
<path style="fill:#9EA9AB;" d="M302.763,254.969h-93.525v42.473c0,6.064,4.916,10.979,10.979,10.979h71.565
	c6.064,0,10.979-4.916,10.979-10.979v-42.473H302.763z"/>
<path style="fill:#7E8889;" d="M238.662,254.969h-29.423v42.473c0,6.064,4.916,10.979,10.979,10.979h18.444V254.969z"/>
<path style="fill:#A4EAFF;" d="M309.768,0C286.705,0,266.571,12.738,256,31.541C245.43,12.738,225.296,0,202.233,0
	c-33.994,0-61.65,27.656-61.65,61.648c0,4.353,3.529,7.881,7.881,7.881s7.881-3.529,7.881-7.881
	c0-25.302,20.585-45.886,45.887-45.886s45.887,20.585,45.887,45.886V84.7c-9.095-8.66-21.385-13.993-34.905-13.993
	c-27.938,0-50.666,22.729-50.666,50.666c0,4.353,3.529,7.881,7.881,7.881s7.881-3.529,7.881-7.881
	c0-19.246,15.657-34.904,34.904-34.904s34.905,15.657,34.905,34.904V182.1h15.763v-60.727c0-19.246,15.657-34.904,34.904-34.904
	c19.246,0,34.904,15.657,34.904,34.904c0,4.353,3.529,7.881,7.881,7.881s7.881-3.529,7.881-7.881
	c0-27.938-22.729-50.666-50.666-50.666c-13.519,0-25.81,5.333-34.904,13.993V61.648c0-25.302,20.584-45.886,45.886-45.886
	c25.302,0,45.887,20.585,45.887,45.886c0,4.353,3.529,7.881,7.881,7.881s7.881-3.529,7.881-7.881
	C371.417,27.656,343.761,0,309.768,0z"/>
<path style="fill:#9EA9AB;" d="M407.692,171.596c0,35.298-21.857,66.802-56.062,87.451c-8.711,5.265-18.222,9.815-28.373,13.556
	c-6.841,2.512-13.976,4.666-21.353,6.4h-91.801c-61.337-14.439-105.788-57.071-105.788-107.406l146.434-14.354L407.692,171.596z"/>
<g>
	<path style="fill:#7E8889;" d="M326.741,263.424h-43.758c-30.281,0-59.991-9.202-84.449-27.057
		c-23.294-17.006-39.216-39.56-43.911-64.776h-50.311c0,50.335,44.45,92.968,105.788,107.406h91.801
		c16.149-3.802,31.126-9.559,44.431-16.895C339.859,262.964,333.316,263.424,326.741,263.424z"/>
	<path style="fill:#7E8889;" d="M351.63,171.596v87.451c-8.711,5.265-18.222,9.815-28.373,13.556v-114.31L351.63,171.596z"/>
</g>
<path style="fill:#63D2FF;" d="M407.689,167.928c0-12.138-9.84-21.978-21.978-21.978h-3.243H255.999H129.531h-3.243
	c-12.138,0-21.978,9.84-21.978,21.978v3.662h25.22V407.34l47.286-22.977V171.591l0.002-0.001h158.361l0.002,0.001v212.772
	l47.286,24.027v-236.8h25.22v-3.662H407.689z"/>
<g>
	<path style="fill:#A4EAFF;" d="M144.089,363.205L144.089,363.205c-3.192,0-5.78-2.587-5.78-5.78V191.393
		c0-3.192,2.587-5.78,5.78-5.78l0,0c3.192,0,5.78,2.587,5.78,5.78v166.032C149.869,360.617,147.282,363.205,144.089,363.205z"/>
	<path style="fill:#A4EAFF;" d="M353.206,363.205L353.206,363.205c-3.192,0-5.78-2.587-5.78-5.78V191.393
		c0-3.192,2.587-5.78,5.78-5.78l0,0c3.192,0,5.78,2.587,5.78,5.78v166.032C358.986,360.617,356.399,363.205,353.206,363.205z"/>
</g>
<rect x="79.706" y="432.557" style="fill:#7E8889;" width="352.588" height="79.443"/>
<g>
	<rect x="114.132" y="473.403" style="fill:#9EA9AB;" width="318.162" height="38.598"/>
	<path style="fill:#9EA9AB;" d="M454.216,384.363H57.785c-6.071,0-10.992,4.921-10.992,10.992v41.836
		c0,6.071,4.921,10.992,10.992,10.992h396.431c6.071,0,10.992-4.921,10.992-10.992v-41.836
		C465.208,389.284,460.287,384.363,454.216,384.363z"/>
</g>
<path style="fill:#7E8889;" d="M128.849,384.363H57.785c-6.071,0-10.992,4.921-10.992,10.992v41.836
	c0,6.071,4.921,10.992,10.992,10.992h71.064V384.363z"/>
<g>
</g>
<g>
</g>
<g>
</g>
<g>
</g>
<g>
</g>
<g>
</g>
<g>
</g>
<g>
</g>
<g>
</g>
<g>
</g>
<g>
</g>
<g>
</g>
<g>
</g>
<g>
</g>
<g>
</g>
</svg>
