<?xml version="1.0" encoding="iso-8859-1"?>
<!-- Generator: Adobe Illustrator 19.0.0, SVG Export Plug-In . SVG Version: 6.00 Build 0)  -->
<svg version="1.1" id="Capa_1" xmlns="http://www.w3.org/2000/svg" xmlns:xlink="http://www.w3.org/1999/xlink" x="0px" y="0px"
	 viewBox="0 0 512 512" style="enable-background:new 0 0 512 512;" xml:space="preserve">
<polygon style="fill:#E9EAEF;" points="453.262,209.129 453.262,509.849 58.738,509.849 58.738,209.129 118.573,151.085 
	142.574,165.805 183.913,87.702 257.112,16.694 "/>
<polyline style="fill:#9EB1B7;" points="356.73,102.954 356.73,47.406 408.416,47.406 415.488,96.721 455.361,78.886 
	455.361,196.884 "/>
<rect x="107.004" y="284.54" style="fill:#423E3E;" width="130.109" height="225.309"/>
<g>
	<polygon style="fill:#D2D4D8;" points="274.19,404.578 280.486,457.741 311.265,417.869 337.846,443.052 352.536,431.16 
		398.004,464.037 423.049,414.649 	"/>
	<polygon style="fill:#D2D4D8;" points="453.262,220.934 453.262,277.143 404.978,258.308 387.213,214.079 363.612,222.633 
		330.346,159.783 303.525,162.825 256,88.799 218.658,124.453 195.052,177.515 177.86,163.406 157.449,182.894 130.088,238.372 
		108.568,229.566 58.738,277.143 58.738,220.934 123.076,159.658 142.574,165.805 182.848,102.733 240.334,47.983 256,33.43 
		271.655,47.983 	"/>
</g>
<polyline style="fill:#8EA0A5;" points="371.422,47.406 369.324,145.76 356.73,117.779 356.73,47.406 "/>
<g>
	<polygon style="fill:#EA4756;" points="124.128,127.36 142.574,165.805 31.405,271.949 0,245.581 	"/>
	<polygon style="fill:#EA4756;" points="512,245.581 480.595,271.949 256,57.521 142.574,165.805 163.801,89.586 240.334,16.694 
		256,2.151 271.655,16.694 	"/>
</g>
<line style="fill:none;stroke:#000000;stroke-width:15;stroke-linejoin:round;stroke-miterlimit:10;" x1="107.004" y1="361.546" x2="107.004" y2="360.392"/>
<path style="fill:#8E480E;" d="M244.983,509.849h-15.739V292.41h-114.37v217.439H99.135V284.54c0-4.346,3.523-7.87,7.869-7.87
	h130.109c4.346,0,7.869,3.523,7.869,7.87V509.849z"/>
<line style="fill:none;stroke:#000000;stroke-width:15;stroke-linejoin:round;stroke-miterlimit:10;" x1="237.113" y1="432.728" x2="237.113" y2="431.574"/>
<rect x="274.887" y="284.54" style="fill:#A0D9F2;" width="148.167" height="130.109"/>
<path style="fill:#8E480E;" d="M423.049,422.519H274.887c-4.346,0-7.87-3.523-7.87-7.87V284.54c0-4.346,3.523-7.87,7.87-7.87
	h148.164c4.346,0,7.869,3.523,7.869,7.87v130.109C430.919,418.995,427.396,422.519,423.049,422.519z M282.756,406.78h132.425V292.41
	H282.756V406.78z"/>
<circle style="fill:#413740;" cx="256" cy="184.01" r="36.198"/>
<path style="fill:#8EA0A5;" d="M256,228.074c-24.299,0-44.067-19.768-44.067-44.068c0-24.299,19.768-44.067,44.067-44.067
	s44.068,19.768,44.068,44.067C300.067,208.306,280.299,228.074,256,228.074z M256,155.678c-15.62,0-28.328,12.708-28.328,28.328
	S240.38,212.335,256,212.335s28.329-12.708,28.329-28.329C284.328,168.386,271.62,155.678,256,155.678z"/>
<g>
	
		<rect x="98.608" y="301.756" transform="matrix(-0.9858 0.1677 -0.1677 -0.9858 396.2362 617.2654)" style="fill:#C97523;" width="146.892" height="47.215"/>
	
		<rect x="98.612" y="444.115" transform="matrix(-0.9858 0.1677 -0.1677 -0.9858 420.118 899.9656)" style="fill:#C97523;" width="146.892" height="47.215"/>
	
		<rect x="98.622" y="372.97" transform="matrix(0.9858 0.1677 -0.1677 0.9858 68.9456 -23.2402)" style="fill:#C97523;" width="146.892" height="47.215"/>
</g>
<g>
	
		<line style="fill:none;stroke:#000000;stroke-width:15;stroke-linecap:round;stroke-linejoin:round;stroke-miterlimit:10;" x1="222.423" y1="404.156" x2="222.423" y2="404.156"/>
	
		<line style="fill:none;stroke:#000000;stroke-width:15;stroke-linecap:round;stroke-linejoin:round;stroke-miterlimit:10;" x1="222.423" y1="315.378" x2="222.423" y2="315.378"/>
	
		<line style="fill:none;stroke:#000000;stroke-width:15;stroke-linecap:round;stroke-linejoin:round;stroke-miterlimit:10;" x1="120.645" y1="386.319" x2="120.645" y2="386.319"/>
	
		<line style="fill:none;stroke:#000000;stroke-width:15;stroke-linecap:round;stroke-linejoin:round;stroke-miterlimit:10;" x1="119.448" y1="333.856" x2="119.448" y2="333.856"/>
	
		<line style="fill:none;stroke:#000000;stroke-width:15;stroke-linecap:round;stroke-linejoin:round;stroke-miterlimit:10;" x1="222.423" y1="457.039" x2="222.423" y2="457.039"/>
	
		<line style="fill:none;stroke:#000000;stroke-width:15;stroke-linecap:round;stroke-linejoin:round;stroke-miterlimit:10;" x1="119.448" y1="475.517" x2="119.448" y2="475.517"/>
</g>
<polygon style="fill:#423E3E;" points="305.316,308.727 338.382,334.316 357.561,302.378 371.154,334.639 407.094,336.572 
	378.547,364.983 391.862,393.664 344.15,377.118 302.288,388.417 319.74,357.263 "/>
<polygon style="fill:#8EA0A5;" points="408.416,47.406 402.9,118.479 415.488,96.721 "/>
<g>
</g>
<g>
</g>
<g>
</g>
<g>
</g>
<g>
</g>
<g>
</g>
<g>
</g>
<g>
</g>
<g>
</g>
<g>
</g>
<g>
</g>
<g>
</g>
<g>
</g>
<g>
</g>
<g>
</g>
</svg>
