<?xml version="1.0" encoding="iso-8859-1"?>
<!-- Generator: Adobe Illustrator 19.0.0, SVG Export Plug-In . SVG Version: 6.00 Build 0)  -->
<svg version="1.1" id="Capa_1" xmlns="http://www.w3.org/2000/svg" xmlns:xlink="http://www.w3.org/1999/xlink" x="0px" y="0px"
	 viewBox="0 0 512 512" style="enable-background:new 0 0 512 512;" xml:space="preserve">
<g>
	<rect x="0.003" y="93.475" style="fill:#A0D9F2;" width="15.673" height="411.363"/>
	<rect x="45.118" y="93.475" style="fill:#A0D9F2;" width="15.673" height="411.363"/>
	<rect x="90.237" y="93.695" style="fill:#A0D9F2;" width="15.673" height="411.144"/>
	<rect x="135.355" y="100.967" style="fill:#A0D9F2;" width="15.673" height="403.871"/>
	<rect x="180.474" y="119.713" style="fill:#A0D9F2;" width="15.673" height="385.126"/>
	<rect x="225.603" y="153.525" style="fill:#A0D9F2;" width="15.673" height="351.313"/>
	<polygon style="fill:#A0D9F2;" points="286.397,214.496 286.397,504.841 270.724,504.841 270.724,209.271 	"/>
	<polygon style="fill:#A0D9F2;" points="331.516,287.075 331.516,504.841 315.843,504.841 315.843,281.851 	"/>
	<polygon style="fill:#A0D9F2;" points="376.634,328.704 376.634,504.841 360.961,504.841 360.961,323.479 376.363,328.61 
		376.373,328.619 	"/>
	<rect x="406.076" y="354.291" style="fill:#A0D9F2;" width="15.673" height="150.548"/>
	<rect x="451.205" y="368.501" style="fill:#A0D9F2;" width="15.673" height="136.337"/>
	<rect x="496.324" y="373.13" style="fill:#A0D9F2;" width="15.673" height="131.709"/>
</g>
<g>
	<rect x="0.003" y="112.701" style="fill:#7DBCD1;" width="15.673" height="31.347"/>
	<rect x="45.118" y="112.701" style="fill:#7DBCD1;" width="15.673" height="31.347"/>
	<path style="fill:#7DBCD1;" d="M90.24,112.798c5.256,0.125,10.48,0.418,15.673,0.867v31.493
		c-5.183-0.522-10.407-0.857-15.673-1.003V112.798z"/>
	<path style="fill:#7DBCD1;" d="M135.358,117.938c5.277,1.076,10.501,2.32,15.673,3.73v32.653
		c-5.151-1.62-10.386-3.051-15.673-4.284V117.938z"/>
	<path style="fill:#7DBCD1;" d="M180.477,131.606c5.308,2.152,10.533,4.493,15.673,7.001v35.485
		c-5.11-2.947-10.334-5.695-15.673-8.234V131.606z"/>
	<path style="fill:#7DBCD1;" d="M225.606,155.471c5.36,3.553,10.595,7.325,15.673,11.295v41.608
		c-5.015-4.932-10.25-9.603-15.673-14.012V155.471z"/>
	<path style="fill:#7DBCD1;" d="M270.724,209.271l15.673,5.224v56.414c-0.449-0.805-0.878-1.609-1.306-2.424l-2.309-4.357
		c-3.699-7.001-7.722-13.751-12.058-20.229V209.271z"/>
	<path style="fill:#7DBCD1;" d="M315.843,281.851l15.673,5.224v44.094c-5.465-5.413-10.7-11.086-15.673-17.011V281.851z"/>
	<path style="fill:#7DBCD1;" d="M376.373,328.619c0.084,0.073,0.167,0.136,0.261,0.199v37.971
		c-5.35-3.323-10.574-6.844-15.673-10.553v-32.757l15.402,5.13L376.373,328.619z"/>
	<path style="fill:#7DBCD1;" d="M419.83,354.293c0.637,0.293,1.275,0.575,1.923,0.846v33.834
		c-5.298-1.985-10.522-4.148-15.673-6.468v-28.212H419.83z"/>
	<path style="fill:#7DBCD1;" d="M462.702,368.503c1.39,0.313,2.779,0.616,4.18,0.888v31.911c-5.277-0.93-10.501-2.027-15.673-3.281
		v-29.518H462.702z"/>
	<path style="fill:#7DBCD1;" d="M512,373.926v31.347c-5.256,0-10.48-0.157-15.673-0.481v-31.399
		C501.52,373.749,506.744,373.926,512,373.926z"/>
</g>
<path style="fill:#F9DB5D;" d="M248.495,115.767c-17.721-17.722-33.193-19.432-33.348-19.448l1.053-10.69
	c0.786,0.077,19.48,2.133,39.889,22.541L248.495,115.767z"/>
<g>
	<path style="fill:#273340;" d="M212.828,99.81c0.228,2.108,0.059,4.284-0.562,6.443c-2.571,8.943-11.899,14.106-20.842,11.535
		c-8.934-2.568-14.106-11.899-11.535-20.842c0.621-2.159,1.633-4.093,2.946-5.757l16.029-9.976L212.828,99.81z"/>
	<path style="fill:#273340;" d="M146.675,80.793c0.228,2.108,0.059,4.284-0.562,6.443c-2.571,8.943-11.899,14.106-20.842,11.535
		c-8.934-2.568-14.106-11.899-11.535-20.842c0.621-2.159,1.633-4.093,2.946-5.757l16.029-9.976L146.675,80.793z"/>
</g>
<path style="fill:#EB1922;" d="M225.73,84.367l-5.085,17.69L109.858,70.21l9.979-34.714c1.097-3.815,5.078-6.019,8.893-4.921
	l79.939,22.98C221.892,57.355,229.528,71.153,225.73,84.367z"/>
<path style="fill:#BA081E;" d="M165.584,86.229L109.857,70.21l9.979-34.714c1.097-3.815,5.078-6.019,8.893-4.921l13.786,3.963
	C142.516,34.536,126.798,75.079,165.584,86.229z"/>
<circle style="fill:#F9DB5D;" cx="173.222" cy="24.902" r="17.739"/>
<path style="fill:#E0C44C;" d="M166.363,20.002c1.73-6.02,6.376-10.401,11.959-12.08c-0.068-0.021-0.131-0.049-0.2-0.068
	c-9.416-2.706-19.243,2.732-21.95,12.148c-2.706,9.416,2.732,19.243,12.148,21.95c3.396,0.976,6.841,0.879,9.99-0.068
	C169.023,39.094,163.677,29.349,166.363,20.002z"/>
<g>
	<path style="fill:#273340;" d="M310.468,188.462c-0.843,1.945-2.064,3.754-3.67,5.326c-6.651,6.509-17.312,6.393-23.82-0.258
		c-6.501-6.644-6.393-17.312,0.258-23.82c1.605-1.57,3.441-2.752,5.404-3.553l18.864-0.763L310.468,188.462z"/>
	<path style="fill:#273340;" d="M262.326,139.267c-0.843,1.945-2.064,3.754-3.669,5.326c-6.651,6.509-17.312,6.393-23.82-0.258
		c-6.501-6.644-6.393-17.312,0.258-23.82c1.605-1.57,3.441-2.752,5.404-3.553l18.864-0.763L262.326,139.267z"/>
</g>
<path style="fill:#006FB7;" d="M329.313,181.402l-13.156,12.874l-80.623-82.39l25.816-25.262c2.837-2.776,7.387-2.727,10.164,0.11
	l58.174,59.448C339.311,156.016,339.139,171.787,329.313,181.402z"/>
<path style="fill:#026196;" d="M276.088,153.329l-40.554-41.442l25.816-25.262c2.837-2.776,7.387-2.727,10.164,0.11l10.032,10.252
	C281.546,96.987,247.862,124.485,276.088,153.329z"/>
<circle style="fill:#F9DB5D;" cx="313.008" cy="103.768" r="17.739"/>
<path style="fill:#E0C44C;" d="M306.152,98.871c1.73-6.02,6.376-10.401,11.959-12.08c-0.068-0.021-0.131-0.049-0.2-0.068
	c-9.416-2.706-19.244,2.732-21.95,12.148s2.732,19.243,12.148,21.95c3.396,0.976,6.841,0.879,9.99-0.068
	C308.81,117.964,303.465,108.219,306.152,98.871z"/>
<path style="fill:#D6DEE5;" d="M511.997,381.823c-95.412,0-182.36-52.414-226.91-136.788l-2.301-4.358
	c-39.107-74.065-115.431-120.076-199.189-120.076H0V89.254h83.599c95.413,0,182.36,52.414,226.91,136.788l2.301,4.358
	c39.106,74.065,115.43,120.076,199.188,120.076V381.823z"/>
<g>
</g>
<g>
</g>
<g>
</g>
<g>
</g>
<g>
</g>
<g>
</g>
<g>
</g>
<g>
</g>
<g>
</g>
<g>
</g>
<g>
</g>
<g>
</g>
<g>
</g>
<g>
</g>
<g>
</g>
</svg>
