<?xml version="1.0" encoding="iso-8859-1"?>
<!-- Generator: Adobe Illustrator 19.0.0, SVG Export Plug-In . SVG Version: 6.00 Build 0)  -->
<svg version="1.1" id="Capa_1" xmlns="http://www.w3.org/2000/svg" xmlns:xlink="http://www.w3.org/1999/xlink" x="0px" y="0px"
	 viewBox="0 0 512 512" style="enable-background:new 0 0 512 512;" xml:space="preserve">
<g>
	<path style="fill:#F63866;" d="M117.391,13.438H48.198v30.752h69.193v38.441H78.95H67.446c-10.631,0-19.248,8.617-19.248,19.248
		v11.504v38.441v30.752H78.95h69.193v-30.752H78.95v-38.441h38.441h30.752V82.632V44.191V13.438H117.391z"/>
	<polygon style="fill:#F63866;" points="249.401,13.438 249.401,82.632 210.961,82.632 210.961,13.438 180.208,13.438 
		180.208,82.632 180.208,113.384 210.961,113.384 249.401,113.384 249.401,182.577 280.154,182.577 280.154,113.384 280.154,82.632 
		280.154,13.438 	"/>
</g>
<path style="fill:#F1C400;" d="M447.494,124.308h-116.83c-8.853,0-16.03,7.177-16.03,16.03v57.631h148.891v-57.631
	C463.524,131.486,456.348,124.308,447.494,124.308z"/>
<rect x="29.529" y="200.202" style="fill:#E5E9EC;" width="452.942" height="280.221"/>
<rect x="29.529" y="200.202" style="fill:#CCCDCE;" width="452.942" height="44.505"/>
<polygon style="fill:#A0D9F2;" points="374.955,244.705 295.652,244.705 216.348,244.705 137.045,244.705 57.741,244.705 
	57.741,462.272 137.045,487.987 216.348,462.272 216.348,435.912 295.652,435.912 374.955,435.912 454.26,435.912 454.26,244.705 
	"/>
<path style="fill:#929DA0;" d="M500.519,182.055H11.481c-5.427,0-9.08,5.557-6.929,10.54l9.154,21.196
	c1.194,2.765,3.917,4.555,6.929,4.555h470.729c3.011,0,5.734-1.79,6.929-4.555l9.154-21.196
	C509.6,187.611,505.947,182.055,500.519,182.055z"/>
<g>
	<path style="fill:#36B0D6;" d="M144.359,462.272H129.73V252.019H65.054v224.474H50.426V244.705c0-4.04,3.275-7.314,7.314-7.314
		h79.304c4.04,0,7.314,3.275,7.314,7.314v217.568H144.359z"/>
	<path style="fill:#36B0D6;" d="M223.662,490.077h-14.629V252.019h-64.675v235.968H129.73V244.705c0-4.04,3.275-7.314,7.314-7.314
		h79.304c4.04,0,7.314,3.275,7.314,7.314V490.077z"/>
	<path style="fill:#36B0D6;" d="M295.652,443.226h-79.304c-4.04,0-7.314-3.275-7.314-7.314V244.705c0-4.04,3.275-7.314,7.314-7.314
		h79.304c4.04,0,7.314,3.275,7.314,7.314v191.207C302.966,439.951,299.692,443.226,295.652,443.226z M223.662,428.597h64.675
		V252.019h-64.675V428.597z"/>
	<path style="fill:#36B0D6;" d="M374.955,443.226h-79.304c-4.04,0-7.314-3.275-7.314-7.314V244.705c0-4.04,3.275-7.314,7.314-7.314
		h79.304c4.04,0,7.314,3.275,7.314,7.314v191.207C382.27,439.951,378.995,443.226,374.955,443.226z M302.966,428.597h64.675V252.019
		h-64.675V428.597z"/>
	<path style="fill:#36B0D6;" d="M454.259,443.226h-79.304c-4.04,0-7.314-3.275-7.314-7.314V244.705c0-4.04,3.275-7.314,7.314-7.314
		h79.304c4.04,0,7.314,3.275,7.314,7.314v191.207C461.573,439.951,458.3,443.226,454.259,443.226z M382.27,428.597h64.675V252.019
		H382.27V428.597z"/>
	<path style="fill:#36B0D6;" d="M111.147,393.619c-4.04,0-7.314-3.275-7.314-7.314v-29.779c0-4.04,3.275-7.314,7.314-7.314
		c4.04,0,7.314,3.275,7.314,7.314v29.779C118.461,390.345,115.187,393.619,111.147,393.619z"/>
	<path style="fill:#36B0D6;" d="M163.395,393.619c-4.04,0-7.314-3.275-7.314-7.314v-29.779c0-4.04,3.275-7.314,7.314-7.314
		c4.04,0,7.314,3.275,7.314,7.314v29.779C170.709,390.345,167.434,393.619,163.395,393.619z"/>
</g>
<g>
	<path style="fill:#423E3E;" d="M433.487,160.934h-88.816c-3.463,0-6.269-2.807-6.269-6.269l0,0c0-3.463,2.807-6.269,6.269-6.269
		h88.816c3.463,0,6.269,2.807,6.269,6.269l0,0C439.757,158.126,436.95,160.934,433.487,160.934z"/>
	<path style="fill:#423E3E;" d="M495.132,462.271H16.868C7.551,462.271,0,469.824,0,479.139v19.423h512v-19.423
		C512,469.824,504.449,462.271,495.132,462.271z"/>
</g>
<g>
</g>
<g>
</g>
<g>
</g>
<g>
</g>
<g>
</g>
<g>
</g>
<g>
</g>
<g>
</g>
<g>
</g>
<g>
</g>
<g>
</g>
<g>
</g>
<g>
</g>
<g>
</g>
<g>
</g>
</svg>
