<?xml version="1.0" encoding="iso-8859-1"?>
<!-- Generator: Adobe Illustrator 19.0.0, SVG Export Plug-In . SVG Version: 6.00 Build 0)  -->
<svg version="1.1" id="Capa_1" xmlns="http://www.w3.org/2000/svg" xmlns:xlink="http://www.w3.org/1999/xlink" x="0px" y="0px"
	 viewBox="0 0 512 512" style="enable-background:new 0 0 512 512;" xml:space="preserve">
<polygon style="fill:#86C25E;" points="251.889,37.635 191.094,14.601 191.094,60.669 "/>
<polygon style="fill:#E21730;" points="373.45,37.635 312.655,14.601 312.655,60.669 "/>
<polygon style="fill:#FFD400;" points="495.01,37.635 434.215,14.601 434.215,60.669 "/>
<polygon style="fill:#00B4E0;" points="130.33,37.635 69.535,14.601 69.535,60.669 "/>
<path style="fill:#9CA5AE;" d="M512,148.423V461.87c0,26.833-21.755,48.588-48.588,48.588H48.579
	c-26.833,0-48.577-21.755-48.577-48.588V148.423L512,148.423L512,148.423z"/>
<path style="fill:#838C93;" d="M48.578,148.419v362.035c-26.833,0-48.577-21.755-48.577-48.588V148.419L48.578,148.419
	L48.578,148.419z"/>
<g>
	<path style="fill:#CDD1D3;" d="M512,234.136v35.025c-10.574,10.888-25.537,17.69-42.099,17.69H42.09
		c-16.562,0-31.524-6.802-42.088-17.68v-34.92c1.996,20.678,20.114,36.927,42.088,36.927h427.811
		C491.917,271.177,510.058,254.877,512,234.136z"/>
	<path style="fill:#CDD1D3;" d="M512,368.927v35.025c-10.574,10.888-25.537,17.69-42.099,17.69H42.09
		c-16.562,0-31.524-6.802-42.088-17.68v-34.92c1.996,20.678,20.114,36.927,42.088,36.927h427.811
		C491.917,405.968,510.058,389.668,512,368.927z"/>
</g>
<path style="fill:#E66F5D;" d="M512,148.413c0,13.416-5.433,25.558-14.231,34.356S476.829,197,463.412,197H48.579
	c-26.833,0-48.577-21.755-48.577-48.588c0-13.416,5.433-25.558,14.231-34.356c8.788-8.798,20.929-14.231,34.346-14.231h414.833
	C490.245,99.825,512,121.58,512,148.413z"/>
<path style="fill:#F6A69A;" d="M511.998,148.419c0,6.666-1.348,13.009-3.772,18.798c-7.356-17.481-24.649-29.769-44.816-29.769
	H48.577c-13.416,0-25.558,5.433-34.346,14.231c-4.43,4.42-8.004,9.697-10.459,15.548C1.337,161.438,0,155.085,0,148.419
	c0-13.416,5.433-25.558,14.221-34.356c8.798-8.798,20.94-14.231,34.356-14.231H463.41
	C490.243,99.831,511.998,121.586,511.998,148.419z"/>
<g>
	<path style="fill:#5C5866;" d="M77.366,9.379V197H61.693V9.379c0-4.336,3.511-7.837,7.837-7.837
		C73.866,1.542,77.366,5.043,77.366,9.379z"/>
	<path style="fill:#5C5866;" d="M198.929,9.379V197h-15.673V9.379c0-4.336,3.511-7.837,7.837-7.837
		C195.418,1.542,198.929,5.043,198.929,9.379z"/>
	<path style="fill:#5C5866;" d="M320.492,9.379V197h-15.673V9.379c0-4.336,3.511-7.837,7.837-7.837
		C316.981,1.542,320.492,5.043,320.492,9.379z"/>
</g>
<path style="fill:#838C93;" d="M340.237,471.743v-134.31c0-18.872-15.298-34.17-34.17-34.17H205.928
	c-18.872,0-34.17,15.298-34.17,34.17v134.31"/>
<path style="fill:#5C5866;" d="M442.055,9.379V197h-15.673V9.379c0-4.336,3.5-7.837,7.837-7.837
	C438.544,1.542,442.055,5.043,442.055,9.379z"/>
<path style="fill:#CDD1D3;" d="M306.066,341.971H205.927c-18.872,0-34.17,15.298-34.17,34.17v134.31h168.481v-134.31
	C340.237,357.269,324.938,341.971,306.066,341.971z"/>
<path style="fill:#312D3B;" d="M203.103,510.45v-134.31c0-1.557,1.266-2.824,2.823-2.824h100.139c1.557,0,2.824,1.266,2.824,2.824
	v134.31H203.103z"/>
<polygon style="fill:#5C5866;" points="203.103,468.134 203.103,510.45 308.89,510.45 "/>
<g>
	<circle style="fill:#CDD1D3;" cx="418.992" cy="341.189" r="16.456"/>
	<circle style="fill:#CDD1D3;" cx="92.996" cy="341.189" r="16.456"/>
	<path style="fill:#CDD1D3;" d="M271.095,462.65c-2.006,0-4.011-0.765-5.542-2.296l-11.08-11.081l-11.081,11.081
		c-3.062,3.06-8.023,3.06-11.083,0c-3.061-3.06-3.061-8.023,0-11.082l16.623-16.623c1.47-1.47,3.463-2.296,5.542-2.296l0,0
		c2.078,0,4.071,0.825,5.542,2.296l16.622,16.623c3.06,3.06,3.06,8.023-0.001,11.082C275.106,461.885,273.1,462.65,271.095,462.65z"
		/>
	<path style="fill:#CDD1D3;" d="M254.472,477.539c-4.329,0-7.837-3.509-7.837-7.837v-22.156c0-4.328,3.508-7.837,7.837-7.837
		s7.837,3.509,7.837,7.837v22.156C262.309,474.031,258.8,477.539,254.472,477.539z"/>
</g>
<g>
	<rect x="61.691" y="174.017" style="fill:#312D3B;" width="15.673" height="22.988"/>
	<rect x="183.253" y="174.017" style="fill:#312D3B;" width="15.673" height="22.988"/>
	<rect x="304.816" y="174.017" style="fill:#312D3B;" width="15.673" height="22.988"/>
	<rect x="426.379" y="174.017" style="fill:#312D3B;" width="15.673" height="22.988"/>
</g>
<g>
</g>
<g>
</g>
<g>
</g>
<g>
</g>
<g>
</g>
<g>
</g>
<g>
</g>
<g>
</g>
<g>
</g>
<g>
</g>
<g>
</g>
<g>
</g>
<g>
</g>
<g>
</g>
<g>
</g>
</svg>
